<?xml version="1.0" encoding="UTF-8"?>
<svg id="Layer_5" data-name="Layer 5" xmlns="http://www.w3.org/2000/svg" viewBox="0 0 1417.32 1417.32">
  <path d="M1176.62,83.82l-936.3.38C108.46,84.21.58,192.28.77,324.13l.19,583.55c0,131.85,108.07,239.74,239.93,239.74l265.42-.19v87.52c.19,54.42,44.71,98.94,99.13,98.75h207.39c54.23,0,98.75-44.52,98.75-98.75v-87.71l265.61-.19c131.66,0,239.55-107.88,239.35-239.74V323.37c-.19-131.85-108.07-239.74-239.93-239.55ZM1289.64,896.46c0,65.07-52.89,118.54-117.97,118.54l-260.28.19-405.08-.19-259.91.19c-65.07,0-118.35-53.08-118.54-118.35l-.19-562.24c0-65.07,53.08-118.15,118.16-118.15l925.27-.57c65.07,0,118.35,53.27,118.54,118.16v562.43Z"/>
  <path d="M598.97,528.86v115.87c0,30.82-24.92,55.94-55.94,55.94h-115.87c-30.82.19-55.94-24.92-55.94-55.94l-.19-88.28h-68.31c-30.82,0-55.94-24.92-55.94-55.94l-.19-115.87c0-30.82,25.12-55.94,55.94-55.94l116.06-.19c30.82,0,55.94,25.11,55.94,55.94v88.47h68.5c30.82,0,55.94,24.92,55.94,55.94Z"/>
</svg>