<?xml version="1.0" encoding="UTF-8"?>
<svg id="Layer_7" data-name="Layer 7" xmlns="http://www.w3.org/2000/svg" viewBox="0 0 1417.32 1417.32">
  <path d="M1417.32,730.96c0,121-98.12,219.12-219.12,219.12s-219.12-98.12-219.12-219.12c0-16.48,1.75-32.38,5.24-47.7l-361.84-213.69c-38.2,33.35-88.04,53.71-142.72,53.91l-132.25,411.87c55.07,39.95,90.75,104.52,90.75,177.63,0,121-98.12,219.12-219.12,219.12S0,1233.98,0,1112.97s97.73-218.74,218.35-219.12l132.25-411.68c-55.27-39.75-91.14-104.52-91.14-177.82,0-121,98.12-219.12,219.12-219.12s219.12,98.12,219.12,219.12c0,16.87-1.94,33.16-5.62,48.87l361.26,213.31c38.78-33.94,89.39-54.68,144.85-54.68,121,0,219.12,98.12,219.12,219.12Z"/>
</svg>