<?xml version="1.0" encoding="UTF-8"?>
<svg id="Layer_3" data-name="Layer 3" xmlns="http://www.w3.org/2000/svg" viewBox="0 0 1417.32 1417.32">
  <path d="M458.84,919.27c17.97,11.32,28.81,22.76,29.99,45.01.34,24.95-20.69,49.28-45.64,49.62-15.14.21-27.71-7.64-38.5-14.61L35.33,761.15c-19.75-12.2-33.24-21.82-33.6-47.66-1.24-24.9,12.88-35.78,32.3-48.53l363.59-249.02c10.6-7.29,22.98-13.68,36.34-13.87,25.83-.35,46.61,22.53,47.85,47.45.31,23.15-13.76,35.83-30.53,47.62l-314.19,214.5,321.75,207.63Z"/>
  <path d="M629.34,361.98c38.29-.51,40.38,22.62,39.19,65.39l-11.86,305.7c-1.36,31.17-8.12,57.12-44.64,57.61-36.52.49-43.99-25.24-46.2-56.38l-20.21-305.27c-3.26-42.69,0-65.91,38.29-66.42l45.42-.63ZM625.52,930.34c33.83-.46,50.1,16.24,50.57,50.09l.31,23.15c.46,33.84-15.35,50.98-49.16,51.44l-23.17.31c-33.84.46-50.12-16.24-50.58-50.08l-.31-23.15c-.46-33.85,15.33-50.99,49.17-51.45l23.17-.31Z"/>
  <path d="M980.06,679.79c36.52-.49,53.63,13.54,54.18,53.61.55,40.07-16.18,54.54-52.69,55.04l-208.41,2.85c-36.5.51-53.62-13.51-54.16-53.59-.55-40.07,16.18-54.56,52.68-55.05l208.41-2.86Z"/>
  <path d="M1361.49,681.24c36.5-.49,53.63,13.53,54.16,53.6.56,40.07-16.18,54.56-52.68,55.05l-208.42,2.85c-36.5.49-53.61-13.51-54.16-53.59-.53-40.07,16.18-54.56,52.68-55.06l208.42-2.85Z"/>
</svg>