<?xml version="1.0" encoding="UTF-8"?>
<svg id="Layer_1" data-name="Layer 1" xmlns="http://www.w3.org/2000/svg" viewBox="0 0 1417.32 1417.32">
  <path d="M567.29,617.21l43.96,149.78-156.06.19,42.06-149.78c11.23-41.11,21.89-94.59,32.16-136.08h2.28c10.85,41.3,23.41,94.21,35.59,135.89Z"/>
  <path d="M1416.3,276.53C1416.3,124.28,1291.64-.19,1139.58,0L276.86.38C124.6.38.32,125.04.32,277.11l.38,862.72c0,152.26,124.66,276.54,276.91,276.54l862.53-.38c152.26,0,276.72-124.66,276.53-276.72l-.38-862.72ZM689.28,1066.93l-54.43-180.99h-202.88l-49.67,181.18h-164.82l214.87-705.51h208.78l220.01,705.32h-171.86ZM943.36,1066.74l-.19-512.15,159.49-.19.19,512.34h-159.49ZM1021.39,491.79c-50.43.19-82.98-35.02-82.79-79.36-.38-45.68,33.12-79.74,84.12-79.93,51.58,0,83.55,34.07,84.31,79.74.19,44.34-32.54,79.55-85.64,79.55Z"/>
</svg>