<?xml version="1.0" encoding="UTF-8"?>
<svg id="Layer_4" data-name="Layer 4" xmlns="http://www.w3.org/2000/svg" viewBox="0 0 1417.32 1417.32">
  <path d="M708.38,0C418.42.19,183.29,235.32,183.48,525.47c.19,354.77,240.6,669.04,396.22,835.21,70.09,74.8,188.78,75.74,259.25,1.51,155.44-164.29,394.9-476.11,394.9-836.91v-.38C1233.66,234.94,998.53-.19,708.38,0ZM440.84,516.24c-.19-148.09,119.83-268.1,267.92-268.29,147.9,0,267.91,120.02,268.1,267.92,0,3.01,0,6.22-.19,9.23-4.9,143.76-122.65,258.87-267.73,258.87-145.07.19-263.2-114.93-267.91-258.68-.19-3.02-.19-6.03-.19-9.04Z"/>
</svg>