<?xml version="1.0" encoding="UTF-8"?>
<svg id="Layer_11" data-name="Layer 11" xmlns="http://www.w3.org/2000/svg" viewBox="0 0 1417.32 1417.32">
  <path d="M1167.43,801.8c-106.99-234.03-146.32-178.13-225.55-439.73-51.86-170.99-169.45-295.33-278.18-331.19C533.96-12.1,405.57-14.61,273.71,51.51,142.05,117.83,67.06,222.12,24.07,351.86c-36.05,108.73-6.75,277.21,99.47,421.03,162.51,219.76,94.27,218.03,217.84,443.58,51.28,93.11,321.17,300.73,589.51,144.2,285.89-121.64,280.68-462.09,236.54-558.86ZM467.84,438.03c-9.83,4.82-20.05,7.13-30.27,7.13-24.67,0-48.58-13.69-60.34-37.21l-64.19-127.81c-16.77-33.35-3.28-73.83,30.07-90.6,33.16-16.77,73.83-3.28,90.41,30.07l64.19,127.81c16.77,33.35,3.28,73.83-29.88,90.6Z"/>
  <path d="M1179.99,658.98c81.42,122.28,105.47,270.07,61.39,410.77-27.88,89,111.65,127.07,139.42,38.44,54.69-174.58,25.41-369.92-75.97-522.18-51.33-77.09-176.61-4.77-124.84,72.97h0Z"/>
</svg>