<?xml version="1.0" encoding="UTF-8"?>
<svg id="Layer_6" data-name="Layer 6" xmlns="http://www.w3.org/2000/svg" viewBox="0 0 1417.32 1417.32">
  <path d="M1416.56,230.26v876.71l-.57-.57v76.74c0,93.88-75.98,170.05-169.86,170.05h-152.34c-93.88,0-169.86-76.17-169.86-170.05v-152.34c0-93.88,75.98-169.86,169.86-169.86h152.34c12.76,0,25.14,1.33,37.13,4v-385.8c0-58.46-47.22-94.07-105.69-79.79l-578.32,141.87c-58.46,14.28-105.69,73.31-105.69,131.58v500.81l-.57.19v9.33c0,93.88-76.17,170.05-169.86,170.05h-152.53c-93.88,0-169.86-76.17-169.86-170.05v-152.34c0-93.88,75.98-169.86,169.86-169.86h152.53c12.76,0,25.14,1.33,37.13,4v-375.52c0-116.92,94.83-235.17,211.75-263.74l632.78-155.2c117.11-28.75,211.75,42.85,211.75,159.77Z"/>
</svg>