<?xml version="1.0" encoding="UTF-8"?>
<svg id="Layer_10" data-name="Layer 10" xmlns="http://www.w3.org/2000/svg" viewBox="0 0 1417.32 1417.32">
  <path d="M113.2,942.9h361.18v361.18c0,62.43-50.69,113.12-113.12,113.12H113.2c-62.43,0-113.12-50.69-113.12-113.12v-248.06c0-62.43,50.69-113.12,113.12-113.12Z"/>
  <path d="M468.94,942.69h361.18c62.43,0,113.12,50.69,113.12,113.12v248.06c0,62.43-50.69,113.12-113.12,113.12h-248.06c-62.43,0-113.12-50.69-113.12-113.12v-361.18h0Z"/>
  <path d="M581.84,474.82h361.18v361.18c0,62.43-50.69,113.12-113.12,113.12h-361.18v-361.18c0-62.43,50.69-113.12,113.12-113.12Z"/>
  <path d="M1056.06.12h248.06c62.43,0,113.12,50.69,113.12,113.12v248.06c0,62.43-50.69,113.12-113.12,113.12h-361.18V113.24C942.94,50.81,993.62.12,1056.06.12Z"/>
</svg>