<?xml version="1.0" encoding="UTF-8"?>
<svg id="Layer_2" data-name="Layer 2" xmlns="http://www.w3.org/2000/svg" viewBox="0 0 1417.32 1417.32">
  <path d="M1417.13,708.28C1416.94,318.81,1098.28,0,708.57,0h-.38C318.47.19-.19,319.19,0,708.85l.19,431.75c0,152.17,124.76,276.72,276.95,276.72l335.04-.19c-56-36.95-100.76-81.13-132-131.41-59.05-95.8-59.81-202.83-1.9-301.86,85.52-146.26,238.09-123.6,349.71-107.22,144,21.33,197.33,19.62,230.28-83.61,12.57-39.61,5.72-78.66-20-112.94-56.95-75.61-189.52-115.98-363.62-110.84-149.14,4.38-264.76,51.61-353.9,144.36-25.52,26.47-67.62,27.42-94.29,1.91-26.48-25.52-27.43-67.8-1.9-94.27,112.95-117.51,263.05-179.97,446.09-185.31,221.33-6.29,389.52,51.8,474.09,163.98,52.19,69.32,66.48,152.17,40.38,233.68-70.29,220.16-254.66,192.93-376.57,175.02-121.71-18.09-179.05-19.43-215.24,42.47-32.76,55.99-32.57,111.22.38,164.36,61.71,99.8,242.09,192.54,518.66,201.49h28.19c152.38-.19,276.95-124.74,276.76-277.1l-.19-431.56ZM378.09,761.03c133.14-112.17,337.33-141.5,560.38-80.56,35.43,9.71,56.38,46.47,46.67,81.89-9.71,35.61-46.48,56.37-81.9,46.66-180-49.14-340.19-29.52-439.23,54.09-84.95,71.61-121.9,191.4-106.86,346.43,3.62,36.57-23.24,69.13-59.81,72.75-2.29.19-4.38.38-6.67.38-33.9,0-62.86-25.9-66.28-60.18-24.57-253.49,69.9-390.8,153.71-461.46ZM1003.23,344.71c-9.14,28.38-35.24,46.47-63.43,46.47-6.86,0-13.52-1.14-20.38-3.24-2.86-.95-198.28-60.56-428.19.95-35.62,9.52-72.19-11.62-81.71-47.23s11.62-72.18,47.24-81.7c269.9-71.99,493.9-2.09,503.23.95,35.05,11.24,54.48,48.75,43.24,83.8ZM1208.56,1145.17c-96.76,67.04-196,87.42-287.43,87.42-85.52,0-164.19-17.9-227.24-32.38-36-8.19-58.47-43.8-50.28-79.8,8.19-35.8,44-58.47,79.81-50.09,126.66,28.76,270.28,61.51,409.33-34.85,30.28-20.95,71.81-13.33,92.76,16.95,20.95,30.28,13.33,71.8-16.95,92.75Z"/>
</svg>