<?xml version="1.0" encoding="UTF-8"?>
<svg id="Layer_8" data-name="Layer 8" xmlns="http://www.w3.org/2000/svg" viewBox="0 0 1417.32 1417.32">
  <path d="M1416.75,187.64c0-95.63-78.3-173.74-173.74-173.74l-1069.28.57C78.1,14.48,0,92.77,0,188.21l.57,1033.84c0,95.63,78.3,173.74,173.74,173.74l1069.28-.57c95.63,0,173.74-78.3,173.74-173.74l-.57-1033.85ZM430.15,1195.39c0,31.43-25.53,56.96-57.15,56.96h-179.45c-31.62,0-57.15-25.53-57.15-56.96v-175.83c0-31.43,25.53-56.96,57.15-56.96h179.45c31.62,0,57.15,25.53,57.15,56.96v175.83ZM433.96,788.86c0,31.62-25.53,57.15-57.15,57.15h-179.45c-31.43,0-57.15-25.53-57.15-57.15v-175.64c0-31.43,25.72-57.15,57.15-57.15h179.45c31.62,0,57.15,25.72,57.15,57.15v175.64ZM437.01,388.24c0,31.62-25.53,57.15-57.15,57.15h-179.45c-31.43,0-57.15-25.53-57.15-57.15v-175.64c0-31.43,25.72-57.15,57.15-57.15h179.45c31.62,0,57.15,25.72,57.15,57.15v175.64ZM1281.31,1162.62c0,49.53-40.2,89.73-89.92,89.73h-546.16c-49.72,0-89.92-40.2-89.92-89.73v-110.3c0-49.53,40.2-89.73,89.92-89.73h546.16c49.72,0,89.92,40.2,89.92,89.73v110.3ZM1285.12,756.29c0,49.53-40.2,89.72-89.73,89.72h-546.35c-49.53,0-89.73-40.2-89.73-89.72v-110.3c0-49.72,40.2-89.92,89.73-89.92h546.35c49.53,0,89.73,40.2,89.73,89.92v110.3ZM1289.88,349.95c0,49.53-40.2,89.73-89.92,89.73h-546.35c-49.53,0-89.73-40.2-89.73-89.73v-110.3c0-49.72,40.2-89.92,89.73-89.92h546.35c49.72,0,89.92,40.2,89.92,89.92v110.3Z"/>
</svg>