<?xml version="1.0" encoding="UTF-8"?>
<svg id="Layer_9" data-name="Layer 9" xmlns="http://www.w3.org/2000/svg" viewBox="0 0 1417.32 1417.32">
  <path d="M1311.06,149.19l-300.45-91.89c-79.4-24.19-163.3,20.49-187.49,99.89l-192.56,629.97c-24.19,79.4,20.48,163.3,99.69,187.49l75.31,23.02c-47.8,125.25-165.05,210.9-316.84,230.21-158.03,20.1-266.31-73.16-291.87-175.78-26.34-106.33,37.46-199.78,170.52-249.73,128.76-48.38,204.85-148.86,203.1-268.45-1.56-117.06-79.79-228.65-185.93-265.14-52.09-18.14-187.29-42.34-318.2,120.18-25.56,31.61-47.99,46.82-66.33,53.26l.2,139.49c53.07-6.24,114.52-34.92,172.47-107.11,54.82-67.89,114.13-95.21,167.39-76.87,52.68,18.34,93.06,77.65,93.84,138.13.98,62.24-38.82,110.23-114.72,138.71-240.75,90.53-287.77,277.62-254.8,410.49,47.02,189.83,225.73,281.53,388.64,281.53,17.95,0,35.7-.98,53.07-3.32,206.41-26.14,366.39-147.69,430.39-325.62l94.23,28.88c79.21,24.19,163.3-20.48,187.49-99.89l192.56-629.97c24.19-79.21-20.48-163.3-99.69-187.49ZM971.98,265.27c-31.02,0-55.99-24.97-55.99-55.99s24.97-55.8,55.99-55.8,55.99,24.97,55.99,55.8-25.17,55.99-55.99,55.99Z"/>
</svg>