<?xml version="1.0" encoding="UTF-8"?>
<svg id="Layer_12" data-name="Layer 12" xmlns="http://www.w3.org/2000/svg" viewBox="0 0 1417.32 1417.32">
  <path d="M1140.2,316.44H277.12C124.62,316.44.67,440.39.67,592.9v197.44c0,152.32,123.95,276.46,276.46,276.46h863.07c152.51,0,276.46-124.14,276.46-276.46v-197.44c0-152.51-123.95-276.46-276.46-276.46ZM1283.38,790.34c0,78.82-64.16,143.18-143.18,143.18H277.12c-79.02,0-143.18-64.35-143.18-143.18v-197.44c0-79.02,64.16-143.18,143.18-143.18h863.07c79.02,0,143.18,64.16,143.18,143.18v197.44Z"/>
  <path d="M1280.14,0c-13.9,64.55-71.4,112.91-139.94,112.91H277.12c-68.35,0-125.47-47.98-139.75-112.14H2.57c15.23,138.04,132.52,245.42,274.55,245.42h863.07C1282.43,246.18,1399.9,138.42,1414.94,0h-134.8Z"/>
  <path d="M1140.2,1137.06H277.12C124.62,1137.06.67,1261.01.67,1413.51v3.81h133.28v-3.81c0-79.02,64.16-143.18,143.18-143.18h863.07c79.02,0,143.18,64.16,143.18,143.18v3.24h133.28v-3.24c0-152.51-123.95-276.46-276.46-276.46Z"/>
</svg>