<?xml version="1.0" encoding="UTF-8"?>
<svg id="Layer_1" data-name="Layer 1" xmlns="http://www.w3.org/2000/svg" viewBox="0 0 1366 768">
  <defs>
    <style>
      .cls-1 {
        fill: #fff;
      }
    </style>
  </defs>
  <path class="cls-1" d="M356.98,461.82c15.36-28.75,20.09-39.78,36.63-76.41.79-1.58,1.58-2.36,2.76-2.36,2.36,0,2.36,1.97,1.58,3.94-15.76,38.99-39.39,97.68-59.87,145.73-1.97,4.33-3.15,4.73-4.33,4.73-6.7,0,4.33-22.84-7.48-22.84s-21.27,7.09-48.05,7.09c-54.75,0-82.32-48.05-82.71-103.98-.79-86.26,61.44-189.05,140.22-189.05,38.21,0,46.08,26.39,57.5,26.39,12.21,0,22.06-42.14,26.39-42.14,1.57,0,2.36,2.36,1.97,4.73-13.79,54.35-27.18,108.31-36.24,147.31-.39,1.97-1.58,2.36-2.36,2.36-1.97,0-2.76-1.18-2.36-3.15,7.88-38.99,6.3-46.48,6.3-56.72,0-33.87-20.48-68.93-60.26-68.93-66.96,0-115.4,98.07-115.4,174.09,0,51.99,24.81,99.25,82.32,99.25,31.11,0,51.2-27.18,63.41-50.02Z"/>
  <path class="cls-1" d="M586.2,386.99c-16.15,38.99-42.93,104.37-61.84,145.73-1.97,4.33-3.15,4.73-4.33,4.73-5.91,0,3.55-24.42-11.03-24.42h-100.43c-12.21,0-19.3,24.42-23.63,24.42-1.97,0-1.58-2.36-1.18-4.73,9.06-38.99,25.21-108.31,34.27-147.3.39-1.97,1.58-2.36,2.36-2.36,1.97,0,2.76,1.18,2.36,3.15l-18.12,107.13c-.79,3.94,1.58,8.66,6.3,8.66h11.82c4.33,0,8.66-3.15,10.24-8.66l53.96-236.32c.79-3.94-1.58-8.66-6.3-8.66h-13c-4.33,0-8.66,3.15-10.24,8.66-12.21,43.33-18.51,67.35-29.54,107.92-.39,1.57-1.58,2.36-2.36,2.36-1.97,0-2.76-1.18-2.36-3.15,8.27-38.99,22.84-107.53,31.12-146.52.79-4.33,1.57-4.73,2.76-4.73,3.94,0,.79,24.42,10.63,24.42h57.9c12.21,0,19.3-24.42,23.63-24.42,1.97,0,1.58,2.36,1.18,4.73-9.06,38.99-25.21,108.31-34.27,147.31-.39,1.97-1.58,2.36-2.36,2.36-1.97,0-2.76-1.18-2.36-3.15l18.12-107.13c.79-3.94-1.58-8.66-6.3-8.66h-13c-4.33,0-8.66,3.15-10.24,8.66l-53.96,236.32c-.79,3.94,1.58,8.66,6.3,8.66h59.08c6.7,0,13-1.57,18.51-12.21,17.72-34.27,35.05-70.5,51.99-104.37.79-1.58,1.58-2.36,2.76-2.36,2.36,0,2.36,1.97,1.58,3.94Z"/>
  <path class="cls-1" d="M740.19,217.63c-9.06,38.99-25.21,108.31-34.27,147.31-.39,1.97-1.58,2.36-2.36,2.36-1.97,0-2.76-1.18-2.36-3.15l18.12-107.13c.79-3.94-1.58-8.66-6.3-8.66h-13c-4.33,0-8.66,3.15-10.24,8.66l-53.96,236.32c-.79,3.94,1.58,8.66,6.3,8.66h13c4.33,0,8.66-3.15,10.24-8.66,12.21-43.33,18.51-67.35,29.54-107.92.39-1.58,1.58-2.36,2.36-2.36,1.97,0,2.76,1.18,2.36,3.15-8.27,38.99-22.84,107.52-31.12,146.52-.79,4.33-1.57,4.73-2.76,4.73-3.94,0-.79-24.42-10.63-24.42h-56.72c-12.21,0-19.3,24.42-23.63,24.42-1.97,0-1.58-2.36-1.18-4.73,9.06-38.99,25.21-108.31,34.27-147.3.39-1.97,1.58-2.36,2.36-2.36,1.97,0,2.76,1.18,2.36,3.15l-18.12,107.13c-.79,3.94,1.58,8.66,6.3,8.66h11.82c4.33,0,8.66-3.15,10.24-8.66l53.96-236.32c.79-3.94-1.58-8.66-6.3-8.66h-13c-4.33,0-8.66,3.15-10.24,8.66-12.21,43.33-18.51,67.35-29.54,107.92-.39,1.57-1.58,2.36-2.36,2.36-1.97,0-2.76-1.18-2.36-3.15,8.27-38.99,22.84-107.53,31.12-146.52.79-4.33,1.57-4.73,2.76-4.73,3.94,0,.79,24.42,10.63,24.42h57.9c12.21,0,19.3-24.42,23.63-24.42,1.97,0,1.58,2.36,1.18,4.73Z"/>
  <path class="cls-1" d="M882.77,461.82c15.36-28.75,20.09-39.78,36.63-76.41.79-1.58,1.57-2.36,2.76-2.36,2.36,0,2.36,1.97,1.57,3.94-15.76,38.99-39.39,97.68-59.87,145.73-1.97,4.33-3.15,4.73-4.33,4.73-6.7,0,4.33-22.84-7.48-22.84s-21.27,7.09-48.05,7.09c-54.75,0-82.32-48.05-82.71-103.98-.79-86.26,61.44-189.05,140.22-189.05,38.21,0,46.08,26.39,57.5,26.39,12.21,0,22.06-42.14,26.39-42.14,1.57,0,2.36,2.36,1.97,4.73-13.79,54.35-27.18,108.31-36.24,147.31-.39,1.97-1.57,2.36-2.36,2.36-1.97,0-2.76-1.18-2.36-3.15,7.88-38.99,6.3-46.48,6.3-56.72,0-33.87-20.48-68.93-60.26-68.93-66.96,0-115.4,98.07-115.4,174.09,0,51.99,24.81,99.25,82.32,99.25,31.11,0,51.2-27.18,63.41-50.02Z"/>
  <path class="cls-1" d="M1103.32,362.57c11.82-33.87,25.99-70.11,36.23-100.83,3.15-9.45-3.54-13.39-8.66-13.39-6.3,0-8.67,1.97-13.39,8.66l-79.56,118.16,31.09,116.59h.03c2.76,7.88,5.51,10.24,10.63,10.24h1.18c4.33,0,8.67-3.15,10.24-8.66,12.21-43.33,18.51-67.35,29.54-107.92.39-1.58,1.57-2.36,2.36-2.36,1.97,0,2.76,1.18,2.36,3.15-8.27,38.99-22.84,107.52-31.12,146.52-.79,4.33-1.57,4.73-2.76,4.73-3.94,0-.79-24.42-10.63-24.42h-44.51c-1.97,0-2.76-.79-2.76-1.97,0-6.3,26.39-5.51,22.84-17.72l-30.2-113.04h-31.43l-25.81,113.04c-.79,3.94,1.57,8.66,6.3,8.66h9.45c4.33,0,9.45-2.36,12.21-8.27,5.12-11.03,11.82-28.36,20.09-49.23.79-1.57,1.57-2.36,2.76-2.36,1.57,0,2.36,1.18,1.97,3.15-8.67,34.66-13.39,51.99-22.06,88.23-.79,3.54-1.58,3.94-2.76,3.94-5.12,0-.79-24.42-10.63-24.42h-54.75c-12.21,0-19.3,24.42-23.63,24.42-1.97,0-1.57-2.36-1.18-4.73,9.06-38.99,25.21-108.31,34.27-147.3.39-1.97,1.57-2.36,2.36-2.36,1.97,0,2.76,1.18,2.36,3.15l-18.12,107.13c-.79,3.94,1.58,8.66,6.3,8.66h11.82c4.33,0,8.67-3.15,10.24-8.66l53.96-236.32c.79-3.94-1.58-8.66-6.3-8.66h-13c-4.33,0-8.66,3.15-10.24,8.66-12.21,43.33-18.51,67.35-29.54,107.92-.39,1.57-1.57,2.36-2.36,2.36-1.97,0-2.76-1.18-2.36-3.15,8.27-38.99,22.84-107.53,31.12-146.52.79-4.33,1.57-4.73,2.75-4.73,3.94,0,.79,24.42,10.63,24.42h57.9c12.21,0,19.3-24.42,23.63-24.42,1.97,0,1.57,2.36,1.18,4.73-9.06,38.99-11.42,49.23-20.48,88.23-.39,1.97-1.58,2.36-2.36,2.36-1.97,0-2.76-1.18-2.37-3.15l4.33-48.05c.79-3.94-1.58-8.66-6.3-8.66h-13c-4.33,0-8.66,3.15-10.24,8.66l-25.63,112.25h29.85c25.79-38.1,43-63.14,68.26-100.83,3.15-4.33,4.33-7.48,4.33-11.42,0-12.6-16.94-13.39-16.94-17.33,0-1.18.79-2.36,2.76-2.36h51.99c14.57,0,24.81-24.42,30.33-24.42,2.76,0,3.15,2.36,1.97,5.51-15.36,36.63-46.47,109.1-61.84,146.12-.39,1.18-1.58,2.76-3.15,2.76-2.36,0-2.36-2.76-1.57-4.73h0Z"/>
</svg>